<?xml version="1.0" encoding="UTF-8" standalone="no"?>
<svg
   xmlns:dc="http://purl.org/dc/elements/1.1/"
   xmlns:cc="http://creativecommons.org/ns#"
   xmlns:rdf="http://www.w3.org/1999/02/22-rdf-syntax-ns#"
   xmlns:svg="http://www.w3.org/2000/svg"
   xmlns="http://www.w3.org/2000/svg"
   xmlns:sodipodi="http://sodipodi.sourceforge.net/DTD/sodipodi-0.dtd"
   xmlns:inkscape="http://www.inkscape.org/namespaces/inkscape"
   version="1.1"
   id="svg2"
   xml:space="preserve"
   width="1336"
   height="1336"
   viewBox="0 0 1336 1336"
   sodipodi:docname="Stumpy_logo_circle_CMYK.ai"><metadata
     id="metadata8"><rdf:RDF><cc:Work
         rdf:about=""><dc:format>image/svg+xml</dc:format><dc:type
           rdf:resource="http://purl.org/dc/dcmitype/StillImage" /></cc:Work></rdf:RDF></metadata><defs
     id="defs6"><clipPath
       clipPathUnits="userSpaceOnUse"
       id="clipPath18"><path
         d="M 0,1002 H 1002 V 0 H 0 Z"
         id="path16" /></clipPath></defs><sodipodi:namedview
     pagecolor="#ffffff"
     bordercolor="#666666"
     borderopacity="1"
     objecttolerance="10"
     gridtolerance="10"
     guidetolerance="10"
     inkscape:pageopacity="0"
     inkscape:pageshadow="2"
     inkscape:window-width="640"
     inkscape:window-height="480"
     id="namedview4" /><g
     id="g10"
     inkscape:groupmode="layer"
     inkscape:label="Stumpy_logo_circle_CMYK"
     transform="matrix(1.3333333,0,0,-1.3333333,0,1336)"><g
       id="g12"><g
         id="g14"
         clip-path="url(#clipPath18)"><g
           id="g20"
           transform="translate(1001.0001,500.9999)"><path
             d="m 0,0 c 0,-276.143 -223.858,-500 -500,-500 -276.143,0 -500,223.857 -500,500 0,276.143 223.857,500 500,500 C -223.858,500 0,276.143 0,0"
             style="fill:#ffffff;fill-opacity:1;fill-rule:nonzero;stroke:none"
             id="path22" /></g><g
           id="g24"
           transform="translate(496.7574,560.2319)"><path
             d="m 0,0 c -1.449,0 -2.897,-0.035 -4.356,-0.101 -50.688,-2.373 -89.997,-45.543 -87.623,-96.231 2.373,-50.688 45.685,-89.873 96.231,-87.621 50.688,2.373 89.997,45.544 87.623,96.232 C 89.57,-38.495 48.781,0 0,0 m -0.119,-209.851 c -62.458,0 -114.677,49.282 -117.628,112.309 -3.04,64.897 47.285,120.17 112.182,123.209 64.967,3.265 120.169,-47.287 123.208,-112.179 3.041,-64.897 -47.285,-120.17 -112.182,-123.208 -1.866,-0.091 -3.731,-0.131 -5.58,-0.131"
             style="fill:#87bbde;fill-opacity:1;fill-rule:nonzero;stroke:none"
             id="path26" /></g><g
           id="g28"
           transform="translate(496.7066,646.8852)"><path
             d="m 0,0 c -98.526,0 -178.683,-80.159 -178.683,-178.683 0,-98.524 80.157,-178.677 178.683,-178.677 98.524,0 178.68,80.153 178.68,178.677 C 178.68,-80.159 98.524,0 0,0 m 0,-383.158 c -112.75,0 -204.48,91.728 -204.48,204.475 0,112.753 91.73,204.48 204.48,204.48 112.75,0 204.478,-91.727 204.478,-204.48 C 204.478,-291.43 112.75,-383.158 0,-383.158"
             style="fill:#43b049;fill-opacity:1;fill-rule:nonzero;stroke:none"
             id="path30" /></g><path
           d="m 712.224,672.63 h -40.842 v 40.842 h 40.842 z"
           style="fill:#43b049;fill-opacity:1;fill-rule:nonzero;stroke:none"
           id="path32" /><g
           id="g34"
           transform="translate(785.0547,458.9726)"><path
             d="m 0,0 c -0.231,6.497 -4.609,11.719 -5.328,17.918 -0.94,8.115 2.374,10.626 4.578,17.973 3.496,11.655 5.627,29.355 1.063,40.992 -2.041,5.197 -9.507,6.559 -11.763,12.188 -2.722,6.793 -1.355,14.205 -3.646,20.848 -1.417,4.111 -5.397,7.963 -7.21,12.126 -2.7,6.2 -3.17,9.287 -7.368,14.688 -3.222,4.146 -8.006,5.307 -8.048,11.566 -0.062,9.315 9.251,16.721 6.655,27.884 -3.518,15.085 -20.129,3.149 -28.887,6.93 -3.71,1.601 -5.869,4.926 -8.581,7.759 h -37.622 c 46.895,-46.82 75.89,-111.562 75.89,-183.144 0,-143.016 -115.727,-258.744 -258.742,-258.744 -143.016,0 -258.743,115.728 -258.743,258.744 0,143.015 115.727,258.742 258.743,258.742 57.083,0 109.786,-18.479 152.551,-49.728 v 43.072 c -9.026,2.426 -18.769,3.884 -27.218,6.5 -17.519,5.426 -52.06,13.069 -59.596,32.8 -1.174,3.082 -4.731,4.388 -7.916,5.167 -33.567,8.203 -54.821,-9.163 -86.249,-15.671 -11.808,-2.445 -24.786,-1.683 -34.939,-8.186 -1.021,-0.653 -2.117,-1.406 -3.323,-1.284 -1.255,0.126 -2.198,1.156 -3.027,2.107 -3.41,3.912 -29.554,25.181 -35.582,16.934 -0.059,-0.08 -7.821,-10.698 -7.821,-10.698 0,0 -8.223,-25.715 -29.152,-26.599 -16.35,-0.691 -28.545,1.232 -39.668,-14.627 -4.032,-5.751 -3.798,-13.795 -8.813,-18.809 -6.387,-6.387 -10.848,-11.584 -17.787,-17.061 -8.408,-6.638 -4.126,-21.846 -12.115,-28.984 -3.815,-3.409 -10.025,-4.504 -11.885,-9.27 -0.492,-1.261 -0.6,-2.658 -1.19,-3.876 -1.958,-4.051 -7.612,-4.038 -12.096,-3.677 -8.982,0.725 -20.019,-0.846 -23.507,-9.154 -3.118,-7.426 1.567,-15.182 2.92,-22.423 1.875,-10.035 -0.574,-10.762 -2.756,-20.001 -1.205,-5.101 1.505,-9.877 -1.78,-14.832 -0.861,-1.299 -2,-2.386 -3.128,-3.461 -11.711,-11.158 -12.342,-15.4 -15.768,-30.819 -0.3,-2.106 -0.56,-4.336 0.271,-6.295 0.612,-1.445 1.761,-2.592 2.534,-3.958 9.958,-17.584 -2.183,-31.26 -9.533,-45.9 -9.511,-18.942 4.651,-29.657 5.304,-47.452 0.216,-5.889 -7.201,-14.446 -4.663,-19.856 0.688,-1.465 2.293,-2.21 3.608,-3.153 4.501,-3.225 5.908,-9.144 7.63,-14.407 2.613,-7.983 8.46,-9.537 12.98,-15.473 4.908,-6.446 9.305,-16.962 11.908,-24.704 3.315,-9.863 1.769,-20.808 8.878,-29.349 1.716,-2.063 3.819,-3.774 5.575,-5.802 3.127,-3.611 5.107,-8.169 8.592,-11.436 5.153,-4.83 12.685,-6.052 18.7,-9.753 16.187,-9.964 7.065,-23.598 14.861,-36.701 4.113,-6.912 12.571,-9.92 20.537,-11.035 7.966,-1.116 16.233,-0.898 23.784,-3.666 9.44,-3.461 16.868,-10.128 21.51,-18.829 6.857,-12.857 31.482,-22.398 45.209,-25.503 6.972,-1.577 12.17,0.135 18.31,-3.986 6.089,-4.087 7.924,-12.608 14.796,-15.755 7.09,-3.248 17.677,-6.171 24.197,-1.142 5.229,4.034 4.203,13.596 13,14.054 11.914,0.621 20.849,-13.87 33.487,-13.107 3.768,0.227 8.463,3.851 12.865,4.283 5.462,0.534 15.635,-0.439 20.233,2.554 3.507,2.282 3.594,8.269 8.699,10.66 21.678,10.151 53.904,-6.383 67.87,11.576 7.404,9.519 7.926,9.199 19.098,14.818 9.075,4.565 14.037,15.136 24.502,17.057 5.779,1.061 12.394,-0.363 15.985,-5.014 4.773,3.786 9.545,7.572 14.317,11.358 1.074,0.851 2.178,1.739 2.815,2.953 1.299,2.472 0.316,5.465 0.291,8.259 -0.09,10.147 18.411,29.33 25.094,36.954 6.45,7.356 14.946,4.503 21.607,9.214 5.749,4.068 5.295,12.615 9.155,18 8.912,12.43 11.466,32.001 16.795,47.337 1.979,5.693 5.545,10.824 10.191,14.661 4.217,3.481 9.895,7.073 9.448,12.522 -0.663,8.093 -8.426,16.336 -9.711,25.523 C -10.412,-30.251 0.525,-14.75 0,0"
             style="fill:#2c5774;fill-opacity:1;fill-rule:nonzero;stroke:none"
             id="path36" /></g><path
           d="m 753.066,713.473 h -40.842 v 40.843 h 40.842 z"
           style="fill:#43b049;fill-opacity:1;fill-rule:nonzero;stroke:none"
           id="path38" /><path
           d="M 805.803,795.158 H 764.961 V 836 h 40.842 z"
           style="fill:#87bbde;fill-opacity:1;fill-rule:nonzero;stroke:none"
           id="path40" /><path
           d="m 712.224,754.315 h -40.842 v 40.842 h 40.842 z"
           style="fill:#6cc3bb;fill-opacity:1;fill-rule:nonzero;stroke:none"
           id="path42" /></g></g></g></svg>
